<svg width="20" height="20" viewBox="0 0 20 20" fill="none" xmlns="http://www.w3.org/2000/svg">
<path fill-rule="evenodd" clip-rule="evenodd" d="M7.52803 19.4692C7.12692 19.6618 6.64529 19.5053 6.43398 19.1137L5.13172 16.7006L2.43424 16.2077C1.99655 16.1278 1.69888 15.7181 1.75808 15.2772L2.12295 12.5594L0.230322 10.5752C-0.0767739 10.2532 -0.0767739 9.74675 0.230322 9.42483L2.12295 7.44058L1.75808 4.72284C1.69888 4.28186 1.99655 3.87216 2.43424 3.7922L5.13172 3.29937L6.43398 0.886214C6.64529 0.494655 7.12692 0.338163 7.52803 0.530737L10 1.71756L12.472 0.530737C12.8731 0.338163 13.3547 0.494655 13.566 0.886214L14.8682 3.29937L17.5657 3.7922C18.0034 3.87216 18.3011 4.28186 18.2419 4.72284L17.8771 7.44058L19.7697 9.42483C20.0767 9.74675 20.0767 10.2532 19.7697 10.5752L17.8771 12.5594L18.2419 15.2772C18.3011 15.7181 18.0034 16.1278 17.5657 16.2077L14.8682 16.7006L13.566 19.1137C13.3547 19.5053 12.8731 19.6618 12.472 19.4692L10 18.2824L7.52803 19.4692ZM8.50592 12.6726C8.18048 12.998 7.65285 12.998 7.32741 12.6726C7.00197 12.3472 7.00197 11.8195 7.32741 11.4941L11.4941 7.3274C11.8195 7.00196 12.3472 7.00196 12.6726 7.3274C12.998 7.65284 12.998 8.18047 12.6726 8.50591L8.50592 12.6726ZM7.91667 9.16666C7.22631 9.16666 6.66667 8.607 6.66667 7.91666C6.66667 7.2263 7.22631 6.66666 7.91667 6.66666C8.607 6.66666 9.16667 7.2263 9.16667 7.91666C9.16667 8.607 8.607 9.16666 7.91667 9.16666ZM12.0833 13.3333C11.393 13.3333 10.8333 12.7737 10.8333 12.0833C10.8333 11.393 11.393 10.8333 12.0833 10.8333C12.7737 10.8333 13.3333 11.393 13.3333 12.0833C13.3333 12.7737 12.7737 13.3333 12.0833 13.3333Z" fill="#1ABB86"/>
</svg>
