<svg width="18" height="21" viewBox="0 0 18 21" fill="none" xmlns="http://www.w3.org/2000/svg">
<mask id="mask0_89_4542" style="mask-type:luminance" maskUnits="userSpaceOnUse" x="0" y="0" width="18" height="21">
<path fill-rule="evenodd" clip-rule="evenodd" d="M0.000244141 0.511719H17.0529V20.3652H0.000244141V0.511719Z" fill="white"/>
</mask>
<g mask="url(#mask0_89_4542)">
<path fill-rule="evenodd" clip-rule="evenodd" d="M4.57335 2.01172C2.91635 2.01172 1.54035 3.35372 1.50135 5.00872V15.7037C1.46435 17.4167 2.81435 18.8277 4.51035 18.8657H12.5743C14.2433 18.7967 15.5653 17.4097 15.5533 15.7097V6.83972L10.9183 2.01172H4.58535H4.57335ZM4.58535 20.3657H4.47635C1.95435 20.3087 -0.0536524 18.2107 0.00134757 15.6877V4.99072C0.0593476 2.50972 2.10835 0.511719 4.57135 0.511719H4.58835H11.2383C11.4423 0.511719 11.6373 0.594719 11.7793 0.741719L16.8443 6.01872C16.9783 6.15772 17.0533 6.34472 17.0533 6.53772V15.7037C17.0713 18.2127 15.1173 20.2627 12.6043 20.3647L4.58535 20.3657Z" fill="#212121"/>
</g>
<path fill-rule="evenodd" clip-rule="evenodd" d="M10.7887 14.6084H5.38867C4.97467 14.6084 4.63867 14.2724 4.63867 13.8584C4.63867 13.4444 4.97467 13.1084 5.38867 13.1084H10.7887C11.2027 13.1084 11.5387 13.4444 11.5387 13.8584C11.5387 14.2724 11.2027 14.6084 10.7887 14.6084Z" fill="#212121"/>
<path fill-rule="evenodd" clip-rule="evenodd" d="M8.7437 10.8564H5.3877C4.9737 10.8564 4.6377 10.5204 4.6377 10.1064C4.6377 9.69245 4.9737 9.35645 5.3877 9.35645H8.7437C9.1577 9.35645 9.4937 9.69245 9.4937 10.1064C9.4937 10.5204 9.1577 10.8564 8.7437 10.8564Z" fill="#212121"/>
<path fill-rule="evenodd" clip-rule="evenodd" d="M16.2983 7.484H13.5433C11.7133 7.479 10.2253 5.987 10.2253 4.159V1.25C10.2253 0.836 10.5613 0.5 10.9753 0.5C11.3893 0.5 11.7253 0.836 11.7253 1.25V4.159C11.7253 5.163 12.5423 5.981 13.5453 5.984H16.2983C16.7123 5.984 17.0483 6.32 17.0483 6.734C17.0483 7.148 16.7123 7.484 16.2983 7.484Z" fill="#212121"/>
</svg>
