<svg width="26" height="26" viewBox="0 0 26 26" fill="none" xmlns="http://www.w3.org/2000/svg">
<path fill-rule="evenodd" clip-rule="evenodd" d="M14.3584 24.7346L15.036 23.5897C15.5615 22.7017 15.8244 22.2578 16.2465 22.0123C16.6686 21.7668 17.2 21.7576 18.263 21.7394C19.8322 21.7123 20.8164 21.6161 21.6418 21.2743C23.1733 20.6399 24.3899 19.4232 25.0243 17.8917C25.5 16.7432 25.5 15.2871 25.5 12.375V11.125C25.5 7.03321 25.5 4.98731 24.579 3.48439C24.0636 2.64341 23.3566 1.93635 22.5156 1.421C21.0126 0.5 18.9668 0.5 14.875 0.5H11.125C7.03321 0.5 4.98731 0.5 3.48439 1.421C2.64341 1.93635 1.93635 2.64341 1.421 3.48439C0.5 4.98731 0.5 7.03321 0.5 11.125V12.375C0.5 15.2871 0.5 16.7432 0.97575 17.8917C1.61009 19.4232 2.8268 20.6399 4.35822 21.2743C5.18361 21.6161 6.16777 21.7123 7.73697 21.7394C8.7999 21.7576 9.33136 21.7668 9.75349 22.0123C10.1756 22.2579 10.4384 22.7017 10.964 23.5897L11.6416 24.7346C12.2456 25.755 13.7544 25.755 14.3584 24.7346ZM13 5.8125C13.5178 5.8125 13.9375 6.23224 13.9375 6.75V16.75C13.9375 17.2678 13.5178 17.6875 13 17.6875C12.4822 17.6875 12.0625 17.2678 12.0625 16.75V6.75C12.0625 6.23224 12.4822 5.8125 13 5.8125ZM8.9375 9.25C8.9375 8.73224 8.51776 8.3125 8 8.3125C7.48224 8.3125 7.0625 8.73224 7.0625 9.25V14.25C7.0625 14.7678 7.48224 15.1875 8 15.1875C8.51776 15.1875 8.9375 14.7678 8.9375 14.25V9.25ZM18 8.3125C18.5178 8.3125 18.9375 8.73224 18.9375 9.25V14.25C18.9375 14.7678 18.5178 15.1875 18 15.1875C17.4822 15.1875 17.0625 14.7678 17.0625 14.25V9.25C17.0625 8.73224 17.4822 8.3125 18 8.3125Z" fill="#8B8B8B"/>
</svg>
