<svg width="20" height="18" viewBox="0 0 20 18" fill="none" xmlns="http://www.w3.org/2000/svg">
<path d="M15.3 2C17 3.5 18 5.6 18 8C18 12.4 14.4 16 10 16C5.6 16 2 12.4 2 8C2 5.6 3.1 3.5 4.7 2H15.3ZM16 0H4L3.4 0.5C1.2 2.4 0 5.1 0 8C0 13.5 4.5 18 10 18C15.5 18 20 13.5 20 8C20 5.1 18.8 2.4 16.6 0.5L16 0ZM11 4.5C11 5.3 11.7 6 12.5 6C13.3 6 14 5.3 14 4.5C14 3.7 13.3 3 12.5 3C11.7 3 11 3.7 11 4.5ZM6 4.5C6 5.3 6.7 6 7.5 6C8.3 6 9 5.3 9 4.5C9 3.7 8.3 3 7.5 3C6.7 3 6 3.7 6 4.5ZM5 10C6.1 10 7 9.1 7 8C7 6.9 6.1 6 5 6C3.9 6 3 6.9 3 8C3 9.1 3.9 10 5 10ZM9.5 12C9.5 10.9 8.6 10 7.5 10C6.4 10 5.5 10.9 5.5 12C5.5 13.1 6.4 14 7.5 14C8.6 14 9.5 13.1 9.5 12ZM10 10C11.1 10 12 9.1 12 8C12 6.9 11.1 6 10 6C8.9 6 8 6.9 8 8C8 9.1 8.9 10 10 10ZM14.5 12C14.5 10.9 13.6 10 12.5 10C11.4 10 10.5 10.9 10.5 12C10.5 13.1 11.4 14 12.5 14C13.6 14 14.5 13.1 14.5 12ZM17 8C17 6.9 16.1 6 15 6C13.9 6 13 6.9 13 8C13 9.1 13.9 10 15 10C16.1 10 17 9.1 17 8Z" fill="#616161"/>
</svg>
