<svg width="17" height="21" viewBox="0 0 17 21" fill="none" xmlns="http://www.w3.org/2000/svg">
<path fill-rule="evenodd" clip-rule="evenodd" d="M12.923 8.69977C12.509 8.69977 12.173 8.36377 12.173 7.94977V5.80277C12.173 3.70677 10.468 2.00177 8.372 2.00177H8.356C7.343 2.00177 6.394 2.39177 5.677 3.10277C4.955 3.81677 4.556 4.76977 4.552 5.78577V7.94977C4.552 8.36377 4.216 8.69977 3.802 8.69977C3.388 8.69977 3.052 8.36377 3.052 7.94977V5.80277C3.058 4.36277 3.615 3.03377 4.62 2.03777C5.626 1.04077 6.954 0.463767 8.375 0.501767C11.295 0.501767 13.673 2.87977 13.673 5.80277V7.94977C13.673 8.36377 13.337 8.69977 12.923 8.69977Z" fill="#212121"/>
<path fill-rule="evenodd" clip-rule="evenodd" d="M4.542 8.62891C2.864 8.62891 1.5 9.99291 1.5 11.6709V15.9599C1.5 17.6379 2.864 19.0019 4.542 19.0019H12.183C13.86 19.0019 15.225 17.6379 15.225 15.9599V11.6709C15.225 9.99291 13.86 8.62891 12.183 8.62891H4.542ZM12.183 20.5019H4.542C2.037 20.5019 0 18.4649 0 15.9599V11.6709C0 9.16591 2.037 7.12891 4.542 7.12891H12.183C14.688 7.12891 16.725 9.16591 16.725 11.6709V15.9599C16.725 18.4649 14.688 20.5019 12.183 20.5019Z" fill="#212121"/>
<path fill-rule="evenodd" clip-rule="evenodd" d="M8.3623 15.6751C7.9483 15.6751 7.6123 15.3391 7.6123 14.9251V12.7041C7.6123 12.2901 7.9483 11.9541 8.3623 11.9541C8.7763 11.9541 9.1123 12.2901 9.1123 12.7041V14.9251C9.1123 15.3391 8.7763 15.6751 8.3623 15.6751Z" fill="#212121"/>
</svg>
