<svg width="20" height="17" viewBox="0 0 20 17" fill="none" xmlns="http://www.w3.org/2000/svg">
<path d="M19.3333 8.31934C19.3333 8.76231 19.0041 9.12841 18.577 9.18635L18.4583 9.19434L0.958311 9.19434C0.475063 9.19434 0.0833111 8.80259 0.0833111 8.31934C0.0833111 7.87636 0.412491 7.51026 0.839581 7.45232L0.958311 7.44434L18.4583 7.44434C18.9416 7.44434 19.3333 7.83609 19.3333 8.31934Z" fill="white"/>
<path d="M8.6338 14.7281C8.97625 15.0691 8.97744 15.6231 8.63647 15.9656C8.32649 16.2769 7.84045 16.3062 7.49735 16.0527L7.39903 15.9682L0.3407 8.94023C0.0284567 8.62933 5.24521e-05 8.14153 0.255499 7.79845L0.340649 7.70018L7.39898 0.671018C7.7414 0.330017 8.29542 0.331164 8.63642 0.67358C8.94642 0.984866 8.97365 1.47103 8.71878 1.81305L8.63385 1.91101L2.19848 8.32053L8.6338 14.7281Z" fill="white"/>
</svg>
