<svg width="20" height="20" viewBox="0 0 20 20" fill="none" xmlns="http://www.w3.org/2000/svg">
<path d="M9.2498 0C5.03145 0.00411 2.84888 0.0795801 1.46423 1.46423C0.0795801 2.84888 0.00411 5.03145 0 9.2498H4.91352C4.56255 8.8114 4.30031 8.2943 4.15731 7.72228C3.61906 5.56926 5.56926 3.61906 7.72228 4.15731C8.2943 4.30031 8.8114 4.56255 9.2498 4.91352V0Z" fill="currentColor"/>
<path d="M0 10.7498C0.00411 14.9681 0.0795801 17.1506 1.46423 18.5353C2.84888 19.9199 5.03145 19.9954 9.2498 19.9995V12.1234C8.4701 13.6807 6.8598 14.7498 4.99976 14.7498C4.58555 14.7498 4.24976 14.414 4.24976 13.9998C4.24976 13.5856 4.58555 13.2498 4.99976 13.2498C6.53655 13.2498 7.82422 12.1831 8.1628 10.7498H0Z" fill="currentColor"/>
<path d="M10.7498 19.9995C14.9681 19.9954 17.1506 19.9199 18.5353 18.5353C19.9199 17.1506 19.9954 14.9681 19.9995 10.7498H11.8367C12.1753 12.1831 13.463 13.2498 14.9998 13.2498C15.414 13.2498 15.7498 13.5856 15.7498 13.9998C15.7498 14.414 15.414 14.7498 14.9998 14.7498C13.1397 14.7498 11.5294 13.6807 10.7498 12.1234V19.9995Z" fill="currentColor"/>
<path d="M19.9995 9.2498C19.9954 5.03145 19.9199 2.84888 18.5353 1.46423C17.1506 0.0795801 14.9681 0.00411 10.7498 0V4.91352C11.1882 4.56255 11.7053 4.30031 12.2772 4.15731C14.4303 3.61906 16.3805 5.56926 15.8422 7.72228C15.6992 8.2943 15.437 8.8114 15.086 9.2498H19.9995Z" fill="currentColor"/>
<path d="M7.35848 5.61241C8.47001 5.89029 9.24981 6.889 9.24981 8.03469V9.24969H8.03481C6.88912 9.24969 5.89041 8.46989 5.61253 7.35836C5.34892 6.30392 6.30404 5.3488 7.35848 5.61241Z" fill="currentColor"/>
<path d="M10.7498 8.03469V9.24969H11.9647C13.1104 9.24969 14.1091 8.46989 14.387 7.35836C14.6506 6.30392 13.6955 5.3488 12.6411 5.61241C11.5295 5.89029 10.7498 6.889 10.7498 8.03469Z" fill="currentColor"/>
</svg>
