<svg width="14" height="14" viewBox="0 0 14 14" fill="none" xmlns="http://www.w3.org/2000/svg">
<path opacity="0.4" d="M7.65079 1.07607L9.13511 4.05892C9.24446 4.27503 9.45317 4.4251 9.69389 4.45845L13.0279 4.94403C13.2226 4.97138 13.3994 5.0741 13.5187 5.23085C13.6367 5.38559 13.6874 5.58169 13.6587 5.77446C13.6354 5.93454 13.5601 6.08261 13.4447 6.196L11.0288 8.53786C10.8521 8.70128 10.7721 8.9434 10.8148 9.18019L11.4096 12.4725C11.4729 12.8701 11.2096 13.2449 10.8148 13.3203C10.6521 13.3463 10.4854 13.319 10.3387 13.2443L7.36473 11.6948C7.14401 11.5834 6.88329 11.5834 6.66257 11.6948L3.6886 13.2443C3.32319 13.4384 2.87043 13.3063 2.66705 12.9461C2.5917 12.8027 2.56503 12.6393 2.5897 12.4799L3.18449 9.18686C3.22717 8.95074 3.14649 8.70728 2.97045 8.54386L0.554596 6.20334C0.267201 5.92587 0.258533 5.46897 0.535259 5.18149C0.54126 5.17549 0.547928 5.16882 0.554596 5.16215C0.669288 5.04542 0.819987 4.97138 0.982688 4.95204L4.31674 4.46579C4.55679 4.43177 4.7655 4.28303 4.87552 4.06559L6.3065 1.07607C6.43386 0.819938 6.69792 0.660524 6.98464 0.667194H7.074C7.32272 0.697209 7.53943 0.851287 7.65079 1.07607Z" fill="#FF981F"/>
<path d="M6.99459 11.6117C6.86546 11.6157 6.73965 11.6504 6.62649 11.7125L3.66707 13.2584C3.30496 13.4312 2.87163 13.2971 2.66861 12.9508C2.59339 12.8094 2.5661 12.6473 2.59139 12.4885L3.18248 9.20243C3.22242 8.96356 3.14254 8.7207 2.96881 8.55256L0.551877 6.21264C0.264987 5.93175 0.259661 5.4707 0.540561 5.18313C0.544555 5.17913 0.547883 5.17579 0.551877 5.17246C0.666367 5.05903 0.814138 4.9843 0.973226 4.96095L4.31007 4.46988C4.5517 4.43919 4.76138 4.2884 4.86788 4.06955L6.3183 1.0424C6.45609 0.798204 6.72035 0.652752 6.99992 0.668097C6.99459 0.86626 6.99459 11.477 6.99459 11.6117Z" fill="#FF981F"/>
</svg>
