<svg width="20" height="20" viewBox="0 0 20 20" fill="none" xmlns="http://www.w3.org/2000/svg">
<path d="M18.6795 6.01002L12.24 0.770018C10.9816 -0.249982 9.01529 -0.259982 7.76667 0.760018L1.32712 6.01002C0.402973 6.76002 -0.157415 8.26 0.0392122 9.44L1.27796 16.98C1.56307 18.67 3.1066 20 4.78776 20H15.2091C16.8706 20 18.4436 18.64 18.7287 16.97L19.9674 9.43C20.1444 8.26 19.584 6.76002 18.6795 6.01002ZM10.7358 16C10.7358 16.41 10.4015 16.75 9.99843 16.75C9.59534 16.75 9.26107 16.41 9.26107 16V13C9.26107 12.59 9.59534 12.25 9.99843 12.25C10.4015 12.25 10.7358 12.59 10.7358 13V16Z" fill="currentColor"/>
</svg>
