<svg width="22" height="22" viewBox="0 0 22 22" fill="none" xmlns="http://www.w3.org/2000/svg">
<path opacity="0.5" d="M21 11H1" stroke="currentColor" stroke-width="1.5" stroke-linecap="round"/>
<path opacity="0.5" d="M11 1V21" stroke="currentColor" stroke-width="1.5" stroke-linecap="round"/>
<path d="M12 11C12 13.2091 13.7909 15 16 15" stroke="currentColor" stroke-width="1.5" stroke-linecap="round"/>
<path d="M10 11C10 13.2091 8.20914 15 6 15" stroke="currentColor" stroke-width="1.5" stroke-linecap="round"/>
<path d="M11 9.0352C11 7.54529 12.014 6.24659 13.4594 5.88524C15.0631 5.48431 16.5158 6.93697 16.1148 8.5407C15.7535 9.9861 14.4548 11.0001 12.9649 11.0001H11V9.0352Z" stroke="currentColor" stroke-width="1.5"/>
<path d="M11.0001 9.0352C11.0001 7.54529 9.9861 6.24659 8.5407 5.88524C6.93698 5.48431 5.48431 6.93697 5.88524 8.5407C6.24659 9.9861 7.54529 11.0001 9.0352 11.0001H11.0001V9.0352Z" stroke="currentColor" stroke-width="1.5"/>
<path d="M1 11C1 6.28595 1 3.92893 2.46447 2.46447C3.92893 1 6.28595 1 11 1C15.714 1 18.0711 1 19.5355 2.46447C21 3.92893 21 6.28595 21 11C21 15.714 21 18.0711 19.5355 19.5355C18.0711 21 15.714 21 11 21C6.28595 21 3.92893 21 2.46447 19.5355C1 18.0711 1 15.714 1 11Z" stroke="currentColor" stroke-width="1.5"/>
</svg>
