<svg width="20" height="17" viewBox="0 0 20 17" fill="none" xmlns="http://www.w3.org/2000/svg">
<path fill-rule="evenodd" clip-rule="evenodd" d="M9.99962 6.14062C8.66962 6.14062 7.58862 7.22262 7.58862 8.55262C7.58862 9.88163 8.66962 10.9626 9.99962 10.9626C11.3296 10.9626 12.4116 9.88163 12.4116 8.55262C12.4116 7.22262 11.3296 6.14062 9.99962 6.14062ZM9.99962 12.4626C7.84262 12.4626 6.08862 10.7086 6.08862 8.55262C6.08862 6.39562 7.84262 4.64062 9.99962 4.64062C12.1566 4.64062 13.9116 6.39562 13.9116 8.55262C13.9116 10.7086 12.1566 12.4626 9.99962 12.4626Z" fill="#212121"/>
<mask id="mask0_89_1599" style="mask-type:luminance" maskUnits="userSpaceOnUse" x="0" y="0" width="20" height="17">
<path fill-rule="evenodd" clip-rule="evenodd" d="M0.000244141 0.5H20.0001V16.605H0.000244141V0.5Z" fill="white"/>
</mask>
<g mask="url(#mask0_89_1599)">
<path fill-rule="evenodd" clip-rule="evenodd" d="M1.56999 8.55275C3.42999 12.6617 6.56299 15.1047 9.99999 15.1057C13.437 15.1047 16.57 12.6617 18.43 8.55275C16.57 4.44475 13.437 2.00175 9.99999 2.00075C6.56399 2.00175 3.42999 4.44475 1.56999 8.55275ZM10.002 16.6057H9.99799H9.99699C5.86099 16.6027 2.14699 13.7038 0.0609941 8.84875C-0.0200059 8.65975 -0.0200059 8.44575 0.0609941 8.25675C2.14699 3.40275 5.86199 0.50375 9.99699 0.50075C9.99899 0.49975 9.99899 0.49975 9.99999 0.50075C10.002 0.49975 10.002 0.49975 10.003 0.50075C14.139 0.50375 17.853 3.40275 19.939 8.25675C20.021 8.44575 20.021 8.65975 19.939 8.84875C17.854 13.7038 14.139 16.6027 10.003 16.6057H10.002Z" fill="#212121"/>
</g>
</svg>
