<svg width="20" height="20" viewBox="0 0 20 20" fill="none" xmlns="http://www.w3.org/2000/svg">
<path d="M5.5 7.5C4.1 7.5 3 8.6 3 10C3 11.4 4.1 12.5 5.5 12.5C6.9 12.5 8 11.4 8 10C8 8.6 6.9 7.5 5.5 7.5ZM14.5 7.5C13.1 7.5 12 8.6 12 10C12 11.4 13.1 12.5 14.5 12.5C15.9 12.5 17 11.4 17 10C17 8.6 15.9 7.5 14.5 7.5ZM10 2C14.4 2 18 5.6 18 10C18 14.4 14.4 18 10 18C5.6 18 2 14.4 2 10C2 5.6 5.6 2 10 2ZM10 0C4.5 0 0 4.5 0 10C0 15.5 4.5 20 10 20C15.5 20 20 15.5 20 10C20 4.5 15.5 0 10 0ZM10 3C8.6 3 7.5 4.1 7.5 5.5C7.5 6.9 8.6 8 10 8C11.4 8 12.5 6.9 12.5 5.5C12.5 4.1 11.4 3 10 3ZM11.5 5.5C11.5 5.7 11.4 5.9 11.3 6.1L10.7 5.5L11.3 4.9C11.4 5.1 11.5 5.3 11.5 5.5ZM10.6 4.2L10 4.8L9.4 4.2C9.6 4.1 9.8 4 10 4C10.2 4 10.4 4.1 10.6 4.2ZM8.7 6.1C8.6 5.9 8.5 5.7 8.5 5.5C8.5 5.3 8.6 5.1 8.7 4.9L9.3 5.5L8.7 6.1ZM9.4 6.8L10 6.2L10.6 6.8C10.4 6.9 10.2 7 10 7C9.8 7 9.6 6.9 9.4 6.8ZM10 12C8.6 12 7.5 13.1 7.5 14.5C7.5 15.9 8.6 17 10 17C11.4 17 12.5 15.9 12.5 14.5C12.5 13.1 11.4 12 10 12ZM11.5 14.5C11.5 14.7 11.4 14.9 11.3 15.1L10.7 14.5L11.3 13.9C11.4 14.1 11.5 14.3 11.5 14.5ZM10.6 13.2L10 13.8L9.4 13.2C9.6 13.1 9.8 13 10 13C10.2 13 10.4 13.1 10.6 13.2ZM8.7 15.1C8.6 14.9 8.5 14.7 8.5 14.5C8.5 14.3 8.6 14.1 8.7 13.9L9.3 14.5L8.7 15.1ZM9.4 15.8L10 15.2L10.6 15.8C10.4 15.9 10.2 16 10 16C9.8 16 9.6 15.9 9.4 15.8Z" fill="#616161"/>
</svg>
