<svg width="22" height="22" viewBox="0 0 22 22" fill="none" xmlns="http://www.w3.org/2000/svg">
<path d="M15.3148 17.148C15.1419 17.3149 14.9104 17.4073 14.67 17.4053C14.4297 17.4032 14.1998 17.3068 14.0298 17.1368C13.8599 16.9668 13.7635 16.7369 13.7614 16.4966C13.7593 16.2562 13.8517 16.0247 14.0187 15.8518L17.9539 11.9166H1.83341C1.5903 11.9166 1.35714 11.82 1.18523 11.6481C1.01333 11.4762 0.916748 11.243 0.916748 10.9999C0.916748 10.7568 1.01333 10.5236 1.18523 10.3517C1.35714 10.1798 1.5903 10.0832 1.83341 10.0832H17.9539L14.0187 6.14797C13.8517 5.97508 13.7593 5.74353 13.7614 5.50318C13.7635 5.26284 13.8599 5.03293 14.0298 4.86297C14.1998 4.69301 14.4297 4.59661 14.67 4.59452C14.9104 4.59243 15.1419 4.68482 15.3148 4.8518L20.8148 10.3518C20.9867 10.5237 21.0832 10.7568 21.0832 10.9999C21.0832 11.243 20.9867 11.4761 20.8148 11.648L15.3148 17.148Z" fill="white" stroke="white" stroke-width="0.682"/>
</svg>
